# xmcd
#
# Track frame offsets: 
#        150
#        14915
#        27650
#        45015
#        59975
#        83625
#        95655
#        114985
#        136262
#        150317
#        165392
#        181622
#        200022
#        215765
#        233945
#        255372
#
# Disc length: 3617 seconds
#
# Revision: 2
# Processed by: cddbd v1.4PL0 Copyright (c) Steve Scherf et al.
# Submitted via: ExactAudioCopy v0.90b4
#
DISCID=d30e1f10
DTITLE=Lee Towers - The Story Of Lee Towers
DYEAR=1987
DGENRE=Pop
TTITLE0=The Story Of Adam And Eve
TTITLE1=I Can See Clearly Now
TTITLE2=Love Is All
TTITLE3=I Believe In Music
TTITLE4=Fly Too High
TTITLE5=Love Potion Number Nine
TTITLE6=Winter In America
TTITLE7=Run To Me (Duet Met Anita Meyer)
TTITLE8=Golden Lady
TTITLE9=In The Ghetto
TTITLE10=If You Know What I Mean
TTITLE11=New York, New York
TTITLE12=Maybe This Time
TTITLE13=It's Raining In My Heart
TTITLE14=An American Trilogy
TTITLE15=You'll Never Walk Alone
EXTD=
EXTT0=
EXTT1=
EXTT2=
EXTT3=
EXTT4=
EXTT5=
EXTT6=
EXTT7=
EXTT8=
EXTT9=
EXTT10=
EXTT11=
EXTT12=
EXTT13=
EXTT14=
EXTT15=
PLAYORDER=
